#!OML:ASF E:/inclinewalkrobotboard/Project1/Captureday1/Session1/subject1.ASF
:FULLY-SPECIFIED
:DEGREES
163
root 0 0 0 -1.0981104906731325 -2.706056631237562 -2.44639585835906
lowerback 9.443154812844327 0.34951267159243193 0.6745202395177361
upperback 0.009088263397835306 0.681698102556033 1.7360016751925704
thorax -5.182636965882869 0.35390241565181096 1.3498520064991832
lowerneck -16.48986823679011 -2.9797593748184563 -1.9435486983127772
upperneck 19.86496799910231 -3.815896721744849 0.6836307949667351
head 9.047566606703214 -1.8525524284128845 0.0762070964041045
rclavicle -6.601560406104362E-16 -4.803940227718826E-16
rhumerus -23.86053351718907 -18.85946365808365 -74.99121456815095
rradius 27.036871689750257
rwrist 6.426467993115075
rhand -15.858417410459477 21.008048964468806
rfingers 7.125020000000034
rthumb 10.315650767886353 -8.476439062017118
lclavicle -6.613930038075683E-16 -3.1503450834066805E-16
lhumerus -29.749736135382236 1.4116741843441512 78.17575732107375
lradius 28.723711769245597
lwrist 3.2197264953739637
lhand -23.9241763114903 23.32068829808056
lfingers 7.125020000000041
lthumb 2.4956677225188706 53.01056584695212
rfemur -2.5504876917590735 -8.079429602755027 14.058773259458945
rtibia 38.98090546627682
rfoot -8.981952900658648 -8.186013994300342
rtoes 6.337908221368561
lfemur -13.981156934323437 -0.5873579694865985 -20.72770854316613
ltibia 34.23377930057277
lfoot -9.09111123096605 -0.555600114277869
ltoes -2.138382010059951
164
root 0 0 0 -1.0442287219773903 -2.7359694845907576 -2.4597317842550677
lowerback 9.416351196776855 0.3510373569058638 0.6706635905782732
upperback -0.009081304174792137 0.6830788136171985 1.7368997378539373
thorax -5.187165004073739 0.354839966421733 1.3535197485360553
lowerneck -16.479197272168115 -2.973185529083207 -1.9393841903504199
upperneck 19.871450106531203 -3.808707469861989 0.6895587823864857
head 9.048401254246581 -1.8485198250400656 0.07808478667762098
rclavicle -6.593377398226308E-16 -4.785420813917443E-16
rhumerus -23.76050863224217 -18.868714660739588 -74.93074195766458
rradius 27.038114809687958
rwrist 6.475021421670039
rhand -15.81484703644481 20.972460068538197
rfingers 7.125020000000033
rthumb 10.357258314189135 -8.506634266892732
lclavicle -6.597427005248427E-16 -3.170699490172452E-16
lhumerus -29.70117082574759 1.4225487232050087 78.09840725764786
lradius 28.73594687599457
lwrist 3.1828975150168226
lhand -23.869167607624238 23.322471151532625
lfingers 7.12502000000004
lthumb 2.5489006998948085 53.00615580938263
rfemur -2.3741463107397465 -8.293575748247108 13.848612254242056
rtibia 38.99165411263723
rfoot -9.004705647924185 -8.21369747535267
rtoes 6.379304429207256
lfemur -14.089090809746082 -0.5556267065722658 -20.751478422163558
ltibia 34.27446937156108
lfoot -9.125751784403825 -0.5037730783617889
ltoes -2.096615683404762
165
root 0 0 0 -1.0002271994158534 -2.757168448296932 -2.4695838748891834
lowerback 9.393749546451499 0.35176871858481873 0.6670525152208793
upperback -0.02426908419217355 0.6837308406567771 1.7380540619361717
thorax -5.190661231383698 0.3553196435820933 1.3570704460432395
lowerneck -16.469835931224893 -2.9684769694472926 -1.9364647185083035
upperneck 19.878139655299023 -3.803570207176579 0.6941038758490348
head 9.049578298020574 -1.845822331880282 0.07950342423968737
rclavicle -6.582554988424501E-16 -4.794648170916333E-16
rhumerus -23.6892022806937 -18.875966050803896 -74.88624120460632
rradius 27.03996423155933
rwrist 6.507387450366796
rhand -15.784745776048297 20.947669350421283
rfingers 7.125020000000033
rthumb 10.385988319643397 -8.527717456241566
lclavicle -6.584501294238285E-16 -3.1887266268166964E-16
lhumerus -29.66047627778964 1.4316066513621477 78.03433908601187
lradius 28.746473245619175
lwrist 3.15264260983691
lhand -23.824207100172107 23.323866154558246
lfingers 7.12502000000004
lthumb 2.5926266167456475 53.002465895735675
rfemur -2.2072566670606477 -8.495614453681398 13.651965324710474
rtibia 38.999416747414024
rfoot -9.027336652565703 -8.239769178565297
rtoes 6.417233363294983
lfemur -14.170821286721662 -0.5320709074089862 -20.77007123658921
ltibia 34.30275960226989
lfoot -9.153817125832026 -0.46402765567001936
ltoes -2.0653020975594085
166
root 0 0 0 -0.97202168365029 -2.7697117919069214 -2.475403469411165
lowerback 9.379011339964919 0.35207845899581924 0.6645514633499254
upperback -0.03407282276218382 0.6839845250142926 1.7389178040257187
thorax -5.192815864083217 0.35554832699662386 1.3595591595463263
lowerneck -16.463647933912128 -2.9656686385635416 -1.934743684905988
upperneck 19.88277425549394 -3.8004620638577378 0.6969315021008988
head 9.050453004706453 -1.8442612631256146 0.0803897068393884
rclavicle -6.576245840286203E-16 -4.799671602053626E-16
rhumerus -23.638545799504662 -18.881066374198436 -74.85468856626923
rradius 27.04122770005257
rwrist 6.530685558071408
rhand -15.76321954538805 20.929962750889956
rfingers 7.125020000000032
rthumb 10.406531424202889 -8.542776404532296
lclavicle -6.57394932343129E-16 -3.2024782989643757E-16
lhumerus -29.628843213119417 1.4387102739865094 77.98431124715945
lradius 28.754640323936453
lwrist 3.1289166784543614
lhand -23.78900011589124 23.324941690979202
lfingers 7.125020000000039
lthumb 2.626816708350983 52.999574634814984
rfemur -2.084419075562252 -8.644778441412782 13.50654816963602
rtibia 39.006127542764915
rfoot -9.043750497082625 -8.259012259412973
rtoes 6.4455629518477835
lfemur -14.231349746205474 -0.5145770616964285 -20.78378309936545
ltibia 34.32398312011634
lfoot -9.174406366403524 -0.4346503185476003
ltoes -2.0421171341281994
